<svg width="100" height="100" viewBox="0 0 100 100" fill="none" xmlns="http://www.w3.org/2000/svg">
<rect x="14" width="72" height="100" rx="20" fill="white"/>
<path d="M65.8633 12.2979C70.6497 11.8311 74 15.9172 74 20V23C74 27.5993 70.3299 30.4923 67.1367 31.3945C62.7262 32.6408 59.5 36.6986 59.5 41.5V58.5L59.5098 58.9482C59.7033 63.5525 62.8641 67.3982 67.1367 68.6055C70.3299 69.5077 74 72.4007 74 77V80C74 84.2145 70.43 88.4325 65.3955 87.6426C59.4971 86.7169 54.1859 84.0447 50 80.1816C45.8141 84.0447 40.5029 86.7169 34.6045 87.6426C29.57 88.4325 26 84.2145 26 80V77C26 72.4007 29.6701 69.5077 32.8633 68.6055C37.2738 67.3592 40.5 63.3014 40.5 58.5V41.5C40.5 36.6986 37.2738 32.6408 32.8633 31.3945C29.6701 30.4923 26 27.5993 26 23V20C26 15.9172 29.3503 11.8311 34.1367 12.2979L34.6045 12.3574L35.3037 12.4766C40.9222 13.4975 45.9802 16.1071 50 19.8164C54.1859 15.9539 59.4976 13.283 65.3955 12.3574L65.8633 12.2979Z" fill="black" stroke="white" stroke-width="8" stroke-linejoin="round"/>
</svg>
